<svg xmlns="http://www.w3.org/2000/svg" viewBox="0 0 800 450">
  <defs>
    <linearGradient id="bg2" x1="0%" y1="0%" x2="100%" y2="100%">
      <stop offset="0%" style="stop-color:#0d0d1a"/>
      <stop offset="100%" style="stop-color:#061228"/>
    </linearGradient>
    <linearGradient id="accent2" x1="0%" y1="100%" x2="100%" y2="0%">
      <stop offset="0%" style="stop-color:#06b6d4"/>
      <stop offset="100%" style="stop-color:#3b82f6"/>
    </linearGradient>
  </defs>
  <rect width="800" height="450" fill="url(#bg2)"/>
  <circle cx="200" cy="200" r="80" fill="none" stroke="url(#accent2)" stroke-width="1.5" opacity="0.3"/>
  <circle cx="200" cy="200" r="50" fill="none" stroke="url(#accent2)" stroke-width="1" opacity="0.5"/>
  <circle cx="450" cy="150" r="60" fill="none" stroke="url(#accent2)" stroke-width="1" opacity="0.2"/>
  <circle cx="600" cy="250" r="45" fill="none" stroke="url(#accent2)" stroke-width="1" opacity="0.25"/>
  <line x1="250" y1="160" x2="400" y2="130" stroke="#06b6d4" stroke-width="0.5" opacity="0.3"/>
  <line x1="250" y1="240" x2="560" y2="230" stroke="#3b82f6" stroke-width="0.5" opacity="0.2"/>
  <line x1="390" y1="180" x2="560" y2="220" stroke="#06b6d4" stroke-width="0.5" opacity="0.25"/>
  <circle cx="200" cy="200" r="4" fill="#06b6d4"/>
  <circle cx="450" cy="150" r="3" fill="#3b82f6"/>
  <circle cx="600" cy="250" r="3" fill="#06b6d4"/>
  <circle cx="250" cy="160" r="2" fill="#3b82f6" opacity="0.6"/>
  <circle cx="400" cy="130" r="2" fill="#06b6d4" opacity="0.6"/>
  <circle cx="250" cy="240" r="2" fill="#3b82f6" opacity="0.6"/>
  <circle cx="560" cy="230" r="2" fill="#06b6d4" opacity="0.6"/>
  <circle cx="390" cy="180" r="2" fill="#3b82f6" opacity="0.6"/>
  <circle cx="560" cy="220" r="2" fill="#06b6d4" opacity="0.6"/>
</svg>